<svg xmlns="http://www.w3.org/2000/svg" viewBox="0 0 300 250"><path d="M285.7 238c-19.3 16-252 16-271.4 0-19-16-19-210 0-226 19.4-16 252-16 271.4 0 19 16 19 210 0 226z" fill="#cd202c"/><path d="M187 242c-.6-.3-1.4-5-1.7-9.4 0-1.8-.3-2-1-2.7-1.2-1-.8-2.4.5-2.4.5 0 .7-.7 1-2.5.3-3 1.6-7.4 2.8-9.6 1.3-2.5 4.8-5.4 6.5-5.4.8 0 2.3.4 4.3 1.3l1.2.4c.5 0 1 .7 1.3 1.7 1.2 2.5 1.2 5.5-.3 8.7-1.2 3-7 8-10 8.6l-1.2.3v2.4c0 3 0 6 .6 7.5 0 .4.3 1 0 1 0 0-4 .4-4.2 0zm6-17.4c1.4-1 2.6-2.5 3-3 1-1.7 1.4-3.8 1-6 0-2-.2-2-1.5-.8-2 2-3 4.2-4 8.7l-1 2.5c0 1 .6.4 2.6-1.3zm-34 3.8l-.2-5-2.3-.4c-2.5 0-2.7-.4-2.7-1.3 0-1.2.8-1.7 2.8-1.4h1.8v-4c-1-7.4-1.3-13-.4-15 .3-.4.5-.4 1.3-.4 1.2 0 3.7.8 4 1.4 0 .2.2 7.8 0 15v1.6c-.3 1-.3 1 .2 1s.6 0 .5-.8c0-.4 0-.6.8-.7.5 0 1 .3 2.5 1.6 1 1 1.6 1.8 1.6 2-.5.3-2.4.8-3.5.8-2.5 0-2.5-.3-2.5 5.2s.3 5-2.2 5.3h-1.3l-.4-4.7zm-40 3.3c0-.6-.4-1.8-.8-2.4-.6-1.7-1.5-4.6-2.5-8.3 0-1.3-.5-2.5-.6-2.8 0-.4-.3 1.3-.5 6.3 0 2-.5 4.5-.6 5l-.5 1.3-2.8.2-2.5.3-.7-.8-2.5-3.4-1.5-2.4v2.5c.4 1.4.4 2.6.4 3 0 .5-2.6 1.4-4.4 1.4-1.2 0-1.5-.5-1.7-3.5-.8-5.4-.8-6.4-.4-11l.3-4.4 1-.3c2-.7 4-.6 4.7 0 0 .3 1.3 2.4 2.5 5l2.5 4.4.4-2.4c.6-3.6 2.2-8.4 3.6-10.6l.6-.8h2.5c2 0 2.5 0 3 .5.5.6 1.7 5.3 3.4 13.8 0 1.2.6 2.4.7 3 .4.6.5 1.2.5 1.4l.7 2.6c.4 2 .5 2.4.2 2.4 0-.2-.3-.2-.6 0-.2.3-3 1-3.7 1-.4 0-.5-.6-.8-1.2zm11.2.7c-1.2-.4-2-.7-3.7-2-2-1.4-2.5-2.4-2.3-6.2 0-4.2.3-6 1-8.2.8-2 2.5-4 4.8-5.5 1.2-1 1.5-1 3-.8 2.4.4 3.6 1 4 1.7 1 1.5 1 10.3 0 11.5 0 .3-4.5.4-6 0h-1c-.4 0-.5.8-.5 1.8 0 2.2.5 3.7 1.7 4.7 1 .6 1.3.6 2.3.5.6 0 1.5-.4 2-.6 1-.5 3.4 0 4.2.8l.5.7-1.2.3c-3 .8-6.6 1.2-8.8.7zm2-13.2c0-1.4 0-4.2-.2-4.2-.3 0-1.3 2.5-1.8 3.8 0 1 0 1.2.4 1.2 1.3.5 1.5.4 1.6-.6zm15 12.6c-3.7-.4-5.2-1.3-6.8-3.4-1.3-1.8-1.3-2-1.3-4.2v-3c.5-.6 1-1.8 1-2.8 1.4-3.8 2-5.3 5-8.2 1.4-1.2 1.7-1.4 2.6-1.4.6 0 1.5.2 2.3.4l1 .6c.5 0 1 .2 1.4.4.5.7.5.7.2 3.6 0 1.4-.3 2.8-.5 3l-.4 3.8v3.3l-1.6.4c-1.5.3-2 .3-3.8 0-2-.4-2.2-.3-2.5 1.2 0 1 1.3 2.5 2.2 3.8.6.7 1 .8 2 .8 1.7 0 3.4-.3 3.8-1.2.6-.6 1.2-.6 2.2 0 1.3 1 1.3 1.6-.5 2.5-2.2.8-3.8 1-6.3.8zm0-11v-3.3c0-2.5 0-2.8-.2-2-.6 1-2 5-2 5.4 0 .4 0 .5 1 .6.6 0 1-.2 1-.6zm25 10.6c-1.2-1-2.4-5-2.7-10.5-.2-2.6 0-4.3.3-4.8.2-.2 1.7 0 3 .6 2.5 1 2.2.8 2.5 6.2 0 5.3 0 6.3.6 6.3.4-.3 2.8-3.8 3-5 0-.6.5-2.2.5-3.6v-3c0-.7.5-1.2 1.3-1.2.6 0 3.7 1.3 4.2 2 .3 0 .3.6 0 2.6-.5 2.6-1 3.6-1.6 4.4-.3 0-1 .8-1.3 1.5 0 .5-.6 1-1 1 0 0-.4 0-.4.4 0 .3 0 .3 0 0 .3-.3.4-.3.4 0 0 .5-2.7 2.8-3.7 3-1.3.5-4.7.3-5.3 0z" fill="#fff"/></svg>